# This file uses centimeters as units for non-parametric coordinates.

mtllib Ceiling.mtl
g default
v 8.650000 0.850000 -0.500000
v 8.650000 0.850000 0.500000
v 8.650000 -0.150000 -0.500000
v 8.650000 -0.150000 0.500000
v -8.650000 -0.150000 -0.500000
v -8.650000 -0.150000 0.500000
v -8.650000 0.850000 -0.500000
v -8.650000 0.850000 0.500000
v -7.500000 0.859466 -5.000000
v -7.500000 0.859466 5.000000
v 7.500000 0.859466 -5.000000
v 7.500000 0.859466 5.000000
v 7.500000 -0.859492 -5.000000
v 7.500000 -0.859492 5.000000
v -7.500000 -0.859492 -5.000000
v -7.500000 -0.859492 5.000000
v 2.500000 0.153111 5.000000
v 2.500000 0.153111 -5.000000
v 2.500000 -0.859492 -5.000000
v 2.500000 -0.859492 5.000000
v -2.500000 0.153111 5.000000
v -2.500000 0.153111 -5.000000
v -2.500000 -0.859492 -5.000000
v -2.500000 -0.859492 5.000000
v 5.833332 0.477526 5.000000
v 5.833332 0.477526 -5.000000
v 5.833332 -0.859492 -5.000000
v 5.833332 -0.859492 5.000000
v 4.166667 0.324643 5.000000
v 4.166667 0.324643 -5.000000
v 4.166667 -0.859492 -5.000000
v 4.166667 -0.859492 5.000000
v 0.833333 0.054877 5.000000
v 0.833333 0.054877 -5.000000
v 0.833333 -0.859492 -5.000000
v 0.833333 -0.859492 5.000000
v -0.833334 0.054877 5.000000
v -0.833334 0.054877 -5.000000
v -0.833334 -0.859492 -5.000000
v -0.833334 -0.859492 5.000000
v -4.166667 0.324643 5.000000
v -4.166667 0.324643 -5.000000
v -4.166667 -0.859492 -5.000000
v -4.166667 -0.859492 5.000000
v -5.833334 0.477526 5.000000
v -5.833334 0.477526 -5.000000
v -5.833334 -0.859492 -5.000000
v -5.833334 -0.859492 5.000000
v 6.666667 0.579567 5.000000
v 6.666667 0.579567 -5.000000
v 6.666667 -0.859492 -5.000000
v 6.666667 -0.859492 5.000000
v 5.000000 0.394135 5.000000
v 5.000000 0.394135 -5.000000
v 5.000000 -0.859492 -5.000000
v 5.000000 -0.859492 5.000000
v 3.333333 0.255155 5.000000
v 3.333333 0.255155 -5.000000
v 3.333333 -0.859492 -5.000000
v 3.333333 -0.859492 5.000000
v 1.666667 0.106853 5.000000
v 1.666667 0.106853 -5.000000
v 1.666667 -0.859492 -5.000000
v 1.666667 -0.859492 5.000000
v -0.000001 0.028357 5.000000
v -0.000001 0.028357 -5.000000
v -0.000001 -0.859492 -5.000000
v -0.000001 -0.859492 5.000000
v -1.666667 0.106853 5.000000
v -1.666667 0.106853 -5.000000
v -1.666667 -0.859492 -5.000000
v -1.666667 -0.859492 5.000000
v -3.333333 0.255155 5.000000
v -3.333333 0.255155 -5.000000
v -3.333333 -0.859492 -5.000000
v -3.333333 -0.859492 5.000000
v -5.000001 0.394135 5.000000
v -5.000001 0.394135 -5.000000
v -5.000001 -0.859492 -5.000000
v -5.000001 -0.859492 5.000000
v -6.666667 0.579567 5.000000
v -6.666667 0.579567 -5.000000
v -6.666667 -0.859492 -5.000000
v -6.666667 -0.859492 5.000000
v -8.650000 -0.859492 -5.000000
v -8.650000 -0.859492 5.000000
v -8.650000 0.859466 5.000000
v -8.650000 0.859466 -5.000000
v 8.650000 0.859466 -5.000000
v 8.650000 0.859466 5.000000
v 8.650000 -0.859492 5.000000
v 8.650000 -0.859492 -5.000000
vt 0.796206 0.623018
vt 0.796206 0.589293
vt 0.829931 0.589293
vt 0.829931 0.623018
vt 0.001992 0.001849
vt 0.035718 0.001849
vt 0.035718 0.585301
vt 0.001992 0.585301
vt 0.836066 0.589293
vt 0.869792 0.589293
vt 0.869792 0.623018
vt 0.836066 0.623018
vt 0.043115 0.001849
vt 0.076840 0.001849
vt 0.076840 0.585301
vt 0.043115 0.585301
vt 0.084043 0.585301
vt 0.084043 0.001849
vt 0.117769 0.001849
vt 0.117769 0.585301
vt 0.124971 0.585301
vt 0.124971 0.001849
vt 0.158696 0.001849
vt 0.158696 0.585301
vt 0.165899 0.040634
vt 0.503154 0.040634
vt 0.503154 0.068738
vt 0.165899 0.068738
vt 0.165899 0.001849
vt 0.503154 0.001849
vt 0.503154 0.096843
vt 0.165899 0.096843
vt 0.503154 0.124948
vt 0.165899 0.124948
vt 0.503154 0.153052
vt 0.165899 0.153052
vt 0.503154 0.181157
vt 0.165899 0.181157
vt 0.503154 0.209261
vt 0.165899 0.209261
vt 0.503154 0.237366
vt 0.165899 0.237366
vt 0.503154 0.265471
vt 0.165899 0.265471
vt 0.503154 0.293575
vt 0.165899 0.293575
vt 0.503154 0.321680
vt 0.165899 0.321680
vt 0.503154 0.349785
vt 0.165899 0.349785
vt 0.503154 0.377889
vt 0.165899 0.377889
vt 0.503154 0.405994
vt 0.165899 0.405994
vt 0.503154 0.434098
vt 0.165899 0.434098
vt 0.503154 0.462203
vt 0.165899 0.462203
vt 0.503154 0.490308
vt 0.165899 0.490308
vt 0.503154 0.518412
vt 0.165899 0.518412
vt 0.503154 0.546517
vt 0.165899 0.546517
vt 0.503154 0.585301
vt 0.165899 0.585301
vt 0.940035 0.926548
vt 0.940035 0.589293
vt 0.998008 0.589293
vt 0.998008 0.926548
vt 0.510864 0.518412
vt 0.848119 0.518412
vt 0.848119 0.546517
vt 0.510864 0.546517
vt 0.510864 0.490308
vt 0.848119 0.490308
vt 0.848119 0.585301
vt 0.510864 0.585301
vt 0.510864 0.462203
vt 0.848119 0.462203
vt 0.510864 0.434098
vt 0.848119 0.434098
vt 0.510864 0.405994
vt 0.848119 0.405994
vt 0.510864 0.377889
vt 0.848119 0.377889
vt 0.510864 0.349785
vt 0.848119 0.349785
vt 0.510864 0.321680
vt 0.848119 0.321680
vt 0.510864 0.293575
vt 0.848119 0.293575
vt 0.510864 0.265471
vt 0.848119 0.265471
vt 0.510864 0.237366
vt 0.848119 0.237366
vt 0.510864 0.209262
vt 0.848119 0.209262
vt 0.510864 0.181157
vt 0.848119 0.181157
vt 0.510864 0.153052
vt 0.848119 0.153052
vt 0.510864 0.124948
vt 0.848119 0.124948
vt 0.510864 0.096843
vt 0.848119 0.096843
vt 0.510864 0.068738
vt 0.848119 0.068738
vt 0.510864 0.040634
vt 0.848119 0.040634
vt 0.510864 0.001849
vt 0.848119 0.001849
vt 0.875927 0.926548
vt 0.875927 0.589293
vt 0.933900 0.589293
vt 0.933900 0.926548
vt 0.855828 0.040634
vt 0.913801 0.040634
vt 0.913801 0.068738
vt 0.865268 0.068738
vt 0.855828 0.001849
vt 0.913801 0.001849
vt 0.913801 0.096843
vt 0.868709 0.096843
vt 0.913801 0.124948
vt 0.871522 0.124948
vt 0.913801 0.153052
vt 0.873865 0.153052
vt 0.913801 0.181157
vt 0.876209 0.181157
vt 0.913801 0.209261
vt 0.879650 0.209261
vt 0.913801 0.237366
vt 0.881210 0.237366
vt 0.913801 0.265471
vt 0.882963 0.265471
vt 0.913801 0.293575
vt 0.883858 0.293575
vt 0.913801 0.321680
vt 0.882963 0.321680
vt 0.913801 0.349785
vt 0.881210 0.349785
vt 0.913801 0.377889
vt 0.879650 0.377889
vt 0.913801 0.405994
vt 0.876209 0.405994
vt 0.913801 0.434098
vt 0.873865 0.434098
vt 0.913801 0.462203
vt 0.871522 0.462203
vt 0.913801 0.490308
vt 0.868709 0.490308
vt 0.913801 0.518412
vt 0.865268 0.518412
vt 0.913801 0.546517
vt 0.855828 0.546517
vt 0.913801 0.585301
vt 0.855828 0.585301
vt 0.978116 0.546517
vt 0.920144 0.546517
vt 0.929583 0.518412
vt 0.978116 0.518412
vt 0.978116 0.585301
vt 0.920144 0.585301
vt 0.933025 0.490308
vt 0.978116 0.490308
vt 0.935837 0.462203
vt 0.978116 0.462203
vt 0.938181 0.434098
vt 0.978116 0.434098
vt 0.940524 0.405994
vt 0.978116 0.405994
vt 0.943966 0.377889
vt 0.978116 0.377889
vt 0.945526 0.349785
vt 0.978116 0.349785
vt 0.947279 0.321680
vt 0.978116 0.321680
vt 0.948173 0.293575
vt 0.978116 0.293575
vt 0.947279 0.265471
vt 0.978116 0.265471
vt 0.945526 0.237366
vt 0.978116 0.237366
vt 0.943966 0.209261
vt 0.978116 0.209261
vt 0.940524 0.181157
vt 0.978116 0.181157
vt 0.938181 0.153052
vt 0.978116 0.153052
vt 0.935837 0.124948
vt 0.978116 0.124948
vt 0.933025 0.096843
vt 0.978116 0.096843
vt 0.929583 0.068738
vt 0.978116 0.068738
vt 0.920144 0.040634
vt 0.978116 0.040634
vt 0.920144 0.001849
vt 0.978116 0.001849
vn 1.000000 0.000000 0.000000
vn 1.000000 0.000000 0.000000
vn 1.000000 0.000000 0.000000
vn 1.000000 0.000000 0.000000
vn 0.000000 -1.000000 0.000000
vn 0.000000 -1.000000 0.000000
vn 0.000000 -1.000000 0.000000
vn 0.000000 -1.000000 0.000000
vn -1.000000 -0.000000 -0.000000
vn -1.000000 -0.000000 -0.000000
vn -1.000000 -0.000000 -0.000000
vn -1.000000 -0.000000 -0.000000
vn -0.000000 1.000000 -0.000000
vn -0.000000 1.000000 -0.000000
vn -0.000000 1.000000 -0.000000
vn -0.000000 1.000000 -0.000000
vn -0.000000 -0.000000 1.000000
vn -0.000000 -0.000000 1.000000
vn -0.000000 -0.000000 1.000000
vn -0.000000 -0.000000 1.000000
vn 0.000000 0.000000 -1.000000
vn 0.000000 0.000000 -1.000000
vn 0.000000 0.000000 -1.000000
vn 0.000000 0.000000 -1.000000
vn 0.139741 0.990188 0.000000
vn 0.139741 0.990188 0.000000
vn 0.223374 0.974733 0.000000
vn 0.223374 0.974733 0.000000
vn 1.000000 0.000000 0.000000
vn 1.000000 0.000000 0.000000
vn 1.000000 0.000000 0.000000
vn 1.000000 0.000000 0.000000
vn 0.000000 -1.000000 0.000000
vn 0.000000 -1.000000 0.000000
vn 0.000000 -1.000000 0.000000
vn 0.000000 -1.000000 0.000000
vn -1.000000 -0.000000 -0.000000
vn -1.000000 -0.000000 -0.000000
vn -1.000000 -0.000000 -0.000000
vn -1.000000 -0.000000 -0.000000
vn -0.000000 -0.000000 1.000000
vn -0.000000 -0.000000 1.000000
vn -0.000000 -0.000000 1.000000
vn -0.000000 -0.000000 1.000000
vn 0.000000 0.000000 -1.000000
vn 0.000000 0.000000 -1.000000
vn 0.000000 0.000000 -1.000000
vn 0.000000 0.000000 -1.000000
vn -0.088631 0.996065 -0.000000
vn -0.088631 0.996065 -0.000000
vn -0.102378 0.994746 -0.000000
vn -0.102378 0.994746 -0.000000
vn 0.000000 0.000000 -1.000000
vn 0.000000 0.000000 -1.000000
vn 0.000000 0.000000 -1.000000
vn 0.000000 0.000000 -1.000000
vn 0.000000 -1.000000 0.000000
vn 0.000000 -1.000000 0.000000
vn 0.000000 -1.000000 0.000000
vn 0.000000 -1.000000 0.000000
vn -0.000000 -0.000000 1.000000
vn -0.000000 -0.000000 1.000000
vn -0.000000 -0.000000 1.000000
vn -0.000000 -0.000000 1.000000
vn 0.088631 0.996065 0.000000
vn 0.088631 0.996065 0.000000
vn 0.058838 0.998268 0.000000
vn 0.058838 0.998268 0.000000
vn 0.000000 0.000000 -1.000000
vn 0.000000 0.000000 -1.000000
vn 0.000000 0.000000 -1.000000
vn 0.000000 0.000000 -1.000000
vn 0.000000 -1.000000 0.000000
vn 0.000000 -1.000000 0.000000
vn 0.000000 -1.000000 0.000000
vn 0.000000 -1.000000 0.000000
vn -0.000000 -0.000000 1.000000
vn -0.000000 -0.000000 1.000000
vn -0.000000 -0.000000 1.000000
vn -0.000000 -0.000000 1.000000
vn -0.110577 0.993868 -0.000000
vn -0.110577 0.993868 -0.000000
vn -0.223373 0.974733 -0.000000
vn -0.223373 0.974733 -0.000000
vn 0.000000 0.000000 -1.000000
vn 0.000000 0.000000 -1.000000
vn 0.000000 0.000000 -1.000000
vn 0.000000 0.000000 -1.000000
vn 0.000000 -1.000000 0.000000
vn 0.000000 -1.000000 0.000000
vn 0.000000 -1.000000 0.000000
vn 0.000000 -1.000000 0.000000
vn -0.000000 -0.000000 1.000000
vn -0.000000 -0.000000 1.000000
vn -0.000000 -0.000000 1.000000
vn -0.000000 -0.000000 1.000000
vn -0.083100 0.996541 -0.000000
vn -0.083100 0.996541 -0.000000
vn -0.091346 0.995819 -0.000000
vn -0.091346 0.995819 -0.000000
vn 0.000000 0.000000 -1.000000
vn 0.000000 0.000000 -1.000000
vn 0.000000 0.000000 -1.000000
vn 0.000000 0.000000 -1.000000
vn 0.000000 -1.000000 0.000000
vn 0.000000 -1.000000 0.000000
vn 0.000000 -1.000000 0.000000
vn 0.000000 -1.000000 0.000000
vn -0.000000 -0.000000 1.000000
vn -0.000000 -0.000000 1.000000
vn -0.000000 -0.000000 1.000000
vn -0.000000 -0.000000 1.000000
vn -0.047045 0.998893 -0.000000
vn -0.047045 0.998893 -0.000000
vn -0.058838 0.998268 -0.000000
vn -0.058838 0.998268 -0.000000
vn 0.000000 0.000000 -1.000000
vn 0.000000 0.000000 -1.000000
vn 0.000000 0.000000 -1.000000
vn 0.000000 0.000000 -1.000000
vn 0.000000 -1.000000 0.000000
vn 0.000000 -1.000000 0.000000
vn 0.000000 -1.000000 0.000000
vn 0.000000 -1.000000 0.000000
vn -0.000000 -0.000000 1.000000
vn -0.000000 -0.000000 1.000000
vn -0.000000 -0.000000 1.000000
vn -0.000000 -0.000000 1.000000
vn 0.047045 0.998893 0.000000
vn 0.047045 0.998893 0.000000
vn -0.000000 1.000000 -0.000000
vn -0.000000 1.000000 -0.000000
vn 0.000000 0.000000 -1.000000
vn 0.000000 0.000000 -1.000000
vn 0.000000 0.000000 -1.000000
vn 0.000000 0.000000 -1.000000
vn 0.000000 -1.000000 0.000000
vn 0.000000 -1.000000 0.000000
vn 0.000000 -1.000000 0.000000
vn 0.000000 -1.000000 0.000000
vn -0.000000 -0.000000 1.000000
vn -0.000000 -0.000000 1.000000
vn -0.000000 -0.000000 1.000000
vn -0.000000 -0.000000 1.000000
vn 0.083100 0.996541 0.000000
vn 0.083100 0.996541 0.000000
vn 0.102378 0.994746 0.000000
vn 0.102378 0.994746 0.000000
vn 0.000000 0.000000 -1.000000
vn 0.000000 0.000000 -1.000000
vn 0.000000 0.000000 -1.000000
vn 0.000000 0.000000 -1.000000
vn 0.000000 -1.000000 0.000000
vn 0.000000 -1.000000 0.000000
vn 0.000000 -1.000000 0.000000
vn 0.000000 -1.000000 0.000000
vn -0.000000 -0.000000 1.000000
vn -0.000000 -0.000000 1.000000
vn -0.000000 -0.000000 1.000000
vn -0.000000 -0.000000 1.000000
vn 0.110577 0.993868 0.000000
vn 0.110577 0.993868 0.000000
vn 0.091346 0.995819 0.000000
vn 0.091346 0.995819 0.000000
vn 0.000000 0.000000 -1.000000
vn 0.000000 0.000000 -1.000000
vn 0.000000 0.000000 -1.000000
vn 0.000000 0.000000 -1.000000
vn 0.000000 -1.000000 0.000000
vn 0.000000 -1.000000 0.000000
vn 0.000000 -1.000000 0.000000
vn 0.000000 -1.000000 0.000000
vn -0.000000 -0.000000 1.000000
vn -0.000000 -0.000000 1.000000
vn -0.000000 -0.000000 1.000000
vn -0.000000 -0.000000 1.000000
vn -0.139741 0.990188 -0.000000
vn -0.139741 0.990188 -0.000000
vn 0.000000 0.000000 -1.000000
vn 0.000000 0.000000 -1.000000
vn 0.000000 -1.000000 0.000000
vn 0.000000 -1.000000 0.000000
vn -0.000000 -0.000000 1.000000
vn -0.000000 -0.000000 1.000000
vn 0.000000 -1.000000 0.000000
vn 0.000000 -1.000000 0.000000
vn -0.000000 -0.000000 1.000000
vn -0.000000 -0.000000 1.000000
vn -0.000000 1.000000 -0.000000
vn -0.000000 1.000000 -0.000000
vn 0.000000 0.000000 -1.000000
vn 0.000000 0.000000 -1.000000
vn -0.000000 1.000000 -0.000000
vn -0.000000 1.000000 -0.000000
vn -0.000000 -0.000000 1.000000
vn -0.000000 -0.000000 1.000000
vn 0.000000 -1.000000 0.000000
vn 0.000000 -1.000000 0.000000
vn 0.000000 0.000000 -1.000000
vn 0.000000 0.000000 -1.000000
s off
g polySurface20
usemtl initialShadingGroup
f 1/1/1 2/2/2 4/3/3 3/4/4
f 3/5/5 4/6/6 6/7/7 5/8/8
f 5/9/9 6/10/10 8/11/11 7/12/12
f 7/13/13 8/14/14 2/15/15 1/16/16
f 2/17/17 8/18/18 6/19/19 4/20/20
f 7/21/21 1/22/22 3/23/23 5/24/24
s 1
f 9/25/25 10/26/26 81/27/27 82/28/28
s off
f 89/67/29 90/68/30 91/69/31 92/70/32
s 2
f 83/71/33 84/72/34 16/73/35 15/74/36
s off
f 85/113/37 86/114/38 87/115/39 88/116/40
s 3
f 10/117/41 16/118/42 84/119/43 81/120/44
s 4
f 15/159/45 9/160/46 82/161/47 83/162/48
s 1
f 18/52/49 17/51/50 57/53/51 58/54/52
s 4
f 19/186/53 18/185/54 58/187/55 59/188/56
s 2
f 59/99/57 60/100/58 20/98/59 19/97/60
s 3
f 17/144/61 20/143/62 60/145/63 57/146/64
s 1
f 22/40/65 21/39/66 69/41/67 70/42/68
s 4
f 23/174/69 22/173/70 70/175/71 71/176/72
s 2
f 71/87/73 72/88/74 24/86/75 23/85/76
s 3
f 21/132/77 24/131/78 72/133/79 69/134/80
s 1
f 26/60/81 25/59/82 49/61/83 50/62/84
s 4
f 27/194/85 26/193/86 50/195/87 51/196/88
s 2
f 51/107/89 52/108/90 28/106/91 27/105/92
s 3
f 25/152/93 28/151/94 52/153/95 49/154/96
s 1
f 30/56/97 29/55/98 53/57/99 54/58/100
s 4
f 31/190/101 30/189/102 54/191/103 55/192/104
s 2
f 55/103/105 56/104/106 32/102/107 31/101/108
s 3
f 29/148/109 32/147/110 56/149/111 53/150/112
s 1
f 34/48/113 33/47/114 61/49/115 62/50/116
s 4
f 35/182/117 34/181/118 62/183/119 63/184/120
s 2
f 63/95/121 64/96/122 36/94/123 35/93/124
s 3
f 33/140/125 36/139/126 64/141/127 61/142/128
s 1
f 38/44/129 37/43/130 65/45/131 66/46/132
s 4
f 39/178/133 38/177/134 66/179/135 67/180/136
s 2
f 67/91/137 68/92/138 40/90/139 39/89/140
s 3
f 37/136/141 40/135/142 68/137/143 65/138/144
s 1
f 42/36/145 41/35/146 73/37/147 74/38/148
s 4
f 43/170/149 42/169/150 74/171/151 75/172/152
s 2
f 75/83/153 76/84/154 44/82/155 43/81/156
s 3
f 41/128/157 44/127/158 76/129/159 73/130/160
s 1
f 46/32/161 45/31/162 77/33/163 78/34/164
s 4
f 47/166/165 46/165/166 78/167/167 79/168/168
s 2
f 79/79/169 80/80/170 48/76/171 47/75/172
s 3
f 45/124/173 48/123/174 80/125/175 77/126/176
s 1
f 50/62/84 49/61/83 12/63/177 11/64/178
s 4
f 51/196/88 50/195/87 11/197/179 13/198/180
s 2
f 13/109/181 14/110/182 52/108/90 51/107/89
s 3
f 49/154/96 52/153/95 14/155/183 12/156/184
s 1
f 54/58/100 53/57/99 25/59/82 26/60/81
s 4
f 55/192/104 54/191/103 26/193/86 27/194/85
s 2
f 27/105/92 28/106/91 56/104/106 55/103/105
s 3
f 53/150/112 56/149/111 28/151/94 25/152/93
s 1
f 58/54/52 57/53/51 29/55/98 30/56/97
s 4
f 59/188/56 58/187/55 30/189/102 31/190/101
s 2
f 31/101/108 32/102/107 60/100/58 59/99/57
s 3
f 57/146/64 60/145/63 32/147/110 29/148/109
s 1
f 62/50/116 61/49/115 17/51/50 18/52/49
s 4
f 63/184/120 62/183/119 18/185/54 19/186/53
s 2
f 19/97/60 20/98/59 64/96/122 63/95/121
s 3
f 61/142/128 64/141/127 20/143/62 17/144/61
s 1
f 66/46/132 65/45/131 33/47/114 34/48/113
s 4
f 67/180/136 66/179/135 34/181/118 35/182/117
s 2
f 35/93/124 36/94/123 68/92/138 67/91/137
s 3
f 65/138/144 68/137/143 36/139/126 33/140/125
s 1
f 70/42/68 69/41/67 37/43/130 38/44/129
s 4
f 71/176/72 70/175/71 38/177/134 39/178/133
s 2
f 39/89/140 40/90/139 72/88/74 71/87/73
s 3
f 69/134/80 72/133/79 40/135/142 37/136/141
s 1
f 74/38/148 73/37/147 21/39/66 22/40/65
s 4
f 75/172/152 74/171/151 22/173/70 23/174/69
s 2
f 23/85/76 24/86/75 76/84/154 75/83/153
s 3
f 73/130/160 76/129/159 24/131/78 21/132/77
s 1
f 78/34/164 77/33/163 41/35/146 42/36/145
s 4
f 79/168/168 78/167/167 42/169/150 43/170/149
s 2
f 43/81/156 44/82/155 80/80/170 79/79/169
s 3
f 77/126/176 80/125/175 44/127/158 41/128/157
s 1
f 82/28/28 81/27/27 45/31/162 46/32/161
s 4
f 83/162/48 82/161/47 46/165/166 47/166/165
s 2
f 47/75/172 48/76/171 84/72/34 83/71/33
s 3
f 81/120/44 84/119/43 48/123/174 45/124/173
s 2
f 15/74/36 16/73/35 86/77/185 85/78/186
s 3
f 16/118/42 10/117/41 87/121/187 86/122/188
s 1
f 10/26/26 9/25/25 88/29/189 87/30/190
s 4
f 9/160/46 15/159/45 85/163/191 88/164/192
s 1
f 11/64/178 12/63/177 90/65/193 89/66/194
s 3
f 12/156/184 14/155/183 91/157/195 90/158/196
s 2
f 14/110/182 13/109/181 92/111/197 91/112/198
s 4
f 13/198/180 11/197/179 89/199/199 92/200/200
