# Blender v2.75 (sub 0) OBJ File: ''
# www.blender.org
mtllib gem_red.mtl
o pCylinder2
v -0.320006 0.398939 -0.200199
v -0.132280 0.398939 -0.336590
v -0.170767 0.289429 -0.455042
v -0.420767 0.289429 -0.273406
v 0.099763 0.398939 -0.336590
v 0.138250 0.289429 -0.455042
v 0.287489 0.398939 -0.200199
v 0.388250 0.289429 -0.273406
v 0.359194 0.398939 0.020487
v 0.483742 0.289429 0.020487
v 0.287489 0.398939 0.241172
v 0.388250 0.289429 0.314379
v 0.099763 0.398939 0.377563
v 0.138250 0.289429 0.496015
v -0.132280 0.398939 0.377563
v -0.170767 0.289429 0.496015
v -0.320006 0.398939 0.241172
v -0.420767 0.289429 0.314379
v -0.391711 0.398939 0.020487
v -0.516258 0.289429 0.020487
v -0.016258 0.398939 0.020487
v -0.420767 0.124281 -0.273406
v -0.170767 0.124281 -0.455042
v -0.016258 -0.435052 0.020487
v 0.138250 0.124281 -0.455042
v 0.388250 0.124281 -0.273406
v 0.483742 0.124281 0.020487
v 0.388250 0.124281 0.314379
v 0.138250 0.124281 0.496015
v -0.170767 0.124281 0.496015
v -0.420767 0.124281 0.314379
v -0.516258 0.124281 0.020487
v -0.170767 0.201141 -0.455042
v 0.138250 0.201141 -0.455042
v -0.420767 0.201141 -0.273406
v -0.516258 0.201141 0.020487
v -0.420767 0.212569 0.314379
v -0.170767 0.212569 0.496015
v 0.138250 0.212569 0.496015
v 0.388250 0.212569 0.314379
v 0.483742 0.201141 0.020487
v 0.388250 0.201141 -0.273406
vt 0.602126 0.767007
vt 0.554569 0.732347
vt 0.567446 0.689678
vt 0.637640 0.739530
vt 0.495784 0.731530
vt 0.482209 0.689678
vt 0.448647 0.766726
vt 0.412109 0.739834
vt 0.429610 0.821794
vt 0.385249 0.821667
vt 0.448217 0.877331
vt 0.411459 0.904445
vt 0.496064 0.911435
vt 0.482985 0.954435
vt 0.554780 0.912542
vt 0.568120 0.954543
vt 0.601769 0.878350
vt 0.638718 0.905192
vt 0.620311 0.822863
vt 0.665532 0.821635
vt 0.879478 0.039100
vt 0.943606 0.085692
vt 0.839844 0.161080
vt 0.800210 0.039100
vt 0.736081 0.085692
vt 0.711586 0.161080
vt 0.736081 0.236468
vt 0.800210 0.283060
vt 0.879478 0.283060
vt 0.943606 0.236468
vt 0.968101 0.161080
vt 0.359815 0.298726
vt 0.272632 0.362069
vt 0.218750 0.196236
vt 0.164868 0.362069
vt 0.077685 0.298726
vt 0.044384 0.196236
vt 0.077685 0.093747
vt 0.164868 0.030404
vt 0.272632 0.030404
vt 0.359815 0.093747
vt 0.393116 0.196236
vt 0.226073 0.936671
vt 0.141966 0.936170
vt 0.148411 0.915806
vt 0.218516 0.916937
vt 0.292464 0.884675
vt 0.274353 0.873168
vt 0.318218 0.802389
vt 0.296584 0.803048
vt 0.295741 0.717869
vt 0.275440 0.732455
vt 0.228080 0.663781
vt 0.220742 0.686977
vt 0.143044 0.663371
vt 0.151327 0.685918
vt 0.075795 0.713865
vt 0.094576 0.727210
vt 0.050541 0.797425
vt 0.073986 0.797853
vt 0.074473 0.883264
vt 0.092501 0.870661
vt 0.235491 0.963148
vt 0.132969 0.963088
vt 0.315754 0.900374
vt 0.346465 0.802212
vt 0.316099 0.703777
vt 0.235979 0.640534
vt 0.135277 0.640534
vt 0.056658 0.699916
vt 0.020723 0.796689
vt 0.050512 0.899620
vn -0.399000 0.734300 -0.549200
vn -0.513200 0.487500 -0.706400
vn -0.000000 0.734300 -0.678800
vn -0.000000 0.487500 -0.873100
vn 0.399000 0.734300 -0.549200
vn 0.513200 0.487500 -0.706400
vn 0.645600 0.734300 -0.209800
vn 0.830400 0.487500 -0.269800
vn 0.645600 0.734300 0.209800
vn 0.824000 0.499400 0.267700
vn 0.399000 0.734300 0.549200
vn 0.505000 0.511800 0.695000
vn -0.000000 0.734300 0.678800
vn 0.000000 0.511800 0.859100
vn -0.399000 0.734300 0.549200
vn -0.505000 0.511800 0.695000
vn -0.645600 0.734300 0.209800
vn -0.824000 0.499400 0.267700
vn -0.645600 0.734300 -0.209800
vn -0.830400 0.487500 -0.269800
vn -0.000000 1.000000 -0.000000
vn -0.603200 -0.666500 -0.438200
vn -0.230400 -0.666500 -0.709100
vn 0.000000 -1.000000 0.000000
vn 0.230400 -0.666500 -0.709100
vn 0.603200 -0.666500 -0.438200
vn 0.745500 -0.666500 0.000000
vn 0.603200 -0.666500 0.438200
vn 0.230400 -0.666500 0.709100
vn -0.230400 -0.666500 0.709100
vn -0.603200 -0.666500 0.438200
vn -0.745500 -0.666500 0.000000
vn -0.000000 -0.000000 -1.000000
vn -0.587800 -0.000000 -0.809000
vn -0.951100 0.000000 -0.309000
vn -0.951100 -0.000000 0.309000
vn -0.587800 0.000000 0.809000
vn 0.000000 0.000000 1.000000
vn 0.587800 0.000000 0.809000
vn 0.951100 -0.000000 0.309000
vn 0.951100 0.000000 -0.309000
vn 0.587800 -0.000000 -0.809000
usemtl initialShadingGroup
s 1
f 1/1/1 2/2/1 3/3/2 4/4/2
f 2/2/3 5/5/3 6/6/4 3/3/4
f 5/5/5 7/7/5 8/8/6 6/6/6
f 7/7/7 9/9/7 10/10/8 8/8/8
f 9/9/9 11/11/9 12/12/10 10/10/10
f 11/11/11 13/13/11 14/14/12 12/12/12
f 13/13/13 15/15/13 16/16/14 14/14/14
f 15/15/15 17/17/15 18/18/16 16/16/16
f 17/17/17 19/19/17 20/20/18 18/18/18
f 19/19/19 1/1/19 4/4/20 20/20/20
f 2/21/21 1/22/21 21/23/21
f 5/24/21 2/21/21 21/23/21
f 7/25/21 5/24/21 21/23/21
f 9/26/21 7/25/21 21/23/21
f 11/27/21 9/26/21 21/23/21
f 13/28/21 11/27/21 21/23/21
f 15/29/21 13/28/21 21/23/21
f 17/30/21 15/29/21 21/23/21
f 19/31/21 17/30/21 21/23/21
f 1/22/21 19/31/21 21/23/21
f 22/32/22 23/33/23 24/34/24
f 23/33/23 25/35/25 24/34/24
f 25/35/25 26/36/26 24/34/24
f 26/36/26 27/37/27 24/34/24
f 27/37/27 28/38/28 24/34/24
f 28/38/28 29/39/29 24/34/24
f 29/39/29 30/40/30 24/34/24
f 30/40/30 31/41/31 24/34/24
f 31/41/31 32/42/32 24/34/24
f 32/42/32 22/32/22 24/34/24
f 33/43/33 34/44/33 25/45/33 23/46/33
f 35/47/34 33/43/34 23/46/34 22/48/34
f 36/49/35 35/47/35 22/48/35 32/50/35
f 37/51/36 36/49/36 32/50/36 31/52/36
f 38/53/37 37/51/37 31/52/37 30/54/37
f 39/55/38 38/53/38 30/54/38 29/56/38
f 40/57/39 39/55/39 29/56/39 28/58/39
f 41/59/40 40/57/40 28/58/40 27/60/40
f 42/61/41 41/59/41 27/60/41 26/62/41
f 34/44/42 42/61/42 26/62/42 25/45/42
f 3/63/4 6/64/4 34/44/33 33/43/33
f 4/65/2 3/63/2 33/43/34 35/47/34
f 20/66/20 4/65/20 35/47/35 36/49/35
f 18/67/18 20/66/18 36/49/36 37/51/36
f 16/68/16 18/67/16 37/51/37 38/53/37
f 14/69/14 16/68/14 38/53/38 39/55/38
f 12/70/12 14/69/12 39/55/39 40/57/39
f 10/71/10 12/70/10 40/57/40 41/59/40
f 8/72/8 10/71/8 41/59/41 42/61/41
f 6/64/6 8/72/6 42/61/42 34/44/42
