# This file uses centimeters as units for non-parametric coordinates.

mtllib Gemstone.mtl
g default
v 0.320006 -0.398939 -0.200199
v 0.132280 -0.398939 -0.336590
v -0.099763 -0.398939 -0.336590
v -0.287489 -0.398939 -0.200199
v -0.359194 -0.398939 0.020487
v -0.287489 -0.398939 0.241172
v -0.099763 -0.398939 0.377563
v 0.132280 -0.398939 0.377563
v 0.320006 -0.398939 0.241172
v 0.391711 -0.398939 0.020487
v 0.420767 -0.124281 -0.273406
v 0.170767 -0.124281 -0.455042
v -0.138250 -0.124281 -0.455042
v -0.388250 -0.124281 -0.273406
v -0.483742 -0.124281 0.020487
v -0.388250 -0.124281 0.314379
v -0.138250 -0.124281 0.496015
v 0.170767 -0.124281 0.496015
v 0.420767 -0.124281 0.314379
v 0.516258 -0.124281 0.020487
v 0.016258 -0.398939 0.020487
v 0.016258 0.435052 0.020487
v -0.138250 -0.201141 -0.455042
v 0.170767 -0.201141 -0.455042
v 0.420767 -0.201141 -0.273406
v 0.516258 -0.201141 0.020487
v 0.420767 -0.212569 0.314379
v 0.170767 -0.212569 0.496015
v -0.138250 -0.212569 0.496015
v -0.388250 -0.212569 0.314379
v -0.483742 -0.201141 0.020487
v -0.388250 -0.201141 -0.273406
v -0.138250 -0.289429 -0.455042
v 0.170767 -0.289429 -0.455042
v 0.420767 -0.289429 -0.273406
v 0.516258 -0.289429 0.020487
v 0.420767 -0.289429 0.314379
v 0.170767 -0.289429 0.496015
v -0.138250 -0.289429 0.496015
v -0.388250 -0.289429 0.314379
v -0.483742 -0.289429 0.020487
v -0.388250 -0.289429 -0.273406
vt 0.626409 0.064409
vt 0.548284 0.007647
vt 0.451716 0.007647
vt 0.373591 0.064409
vt 0.343750 0.156250
vt 0.373591 0.248091
vt 0.451716 0.304853
vt 0.548284 0.304853
vt 0.626409 0.248091
vt 0.656250 0.156250
vt 0.375000 0.312500
vt 0.400000 0.312500
vt 0.425000 0.312500
vt 0.450000 0.312500
vt 0.475000 0.312500
vt 0.500000 0.312500
vt 0.525000 0.312500
vt 0.550000 0.312500
vt 0.575000 0.312500
vt 0.600000 0.312500
vt 0.625000 0.312500
vt 0.375000 0.688440
vt 0.400000 0.688440
vt 0.425000 0.688440
vt 0.450000 0.688440
vt 0.475000 0.688440
vt 0.500000 0.688440
vt 0.525000 0.688440
vt 0.550000 0.688440
vt 0.575000 0.688440
vt 0.600000 0.688440
vt 0.625000 0.688440
vt 0.626409 0.751909
vt 0.548284 0.695147
vt 0.451716 0.695147
vt 0.373591 0.751909
vt 0.343750 0.843750
vt 0.373591 0.935591
vt 0.451716 0.992353
vt 0.548284 0.992353
vt 0.626409 0.935591
vt 0.656250 0.843750
vt 0.500000 0.150000
vt 0.500000 0.837500
vt 0.425000 0.563127
vt 0.400000 0.563127
vt 0.625000 0.563127
vt 0.375000 0.563127
vt 0.600000 0.563127
vt 0.575000 0.563127
vt 0.550000 0.563127
vt 0.525000 0.563127
vt 0.500000 0.563127
vt 0.475000 0.563127
vt 0.450000 0.563127
vt 0.425000 0.437813
vt 0.400000 0.437813
vt 0.625000 0.437813
vt 0.375000 0.437813
vt 0.600000 0.437813
vt 0.575000 0.437813
vt 0.550000 0.437813
vt 0.525000 0.437813
vt 0.500000 0.437813
vt 0.475000 0.437813
vt 0.450000 0.437813
vn 0.399017 -0.734278 -0.549200
vn 0.399017 -0.734278 -0.549200
vn 0.513198 -0.487532 -0.706357
vn 0.513198 -0.487532 -0.706357
vn -0.000000 -0.734278 -0.678849
vn -0.000000 -0.734278 -0.678849
vn -0.000000 -0.487532 -0.873105
vn -0.000000 -0.487532 -0.873105
vn -0.399017 -0.734278 -0.549200
vn -0.399017 -0.734278 -0.549200
vn -0.513198 -0.487532 -0.706357
vn -0.513198 -0.487532 -0.706357
vn -0.645623 -0.734278 -0.209776
vn -0.645623 -0.734278 -0.209776
vn -0.830372 -0.487532 -0.269804
vn -0.830372 -0.487532 -0.269804
vn -0.645624 -0.734278 0.209776
vn -0.645624 -0.734278 0.209776
vn -0.823965 -0.499405 0.267723
vn -0.823965 -0.499405 0.267723
vn -0.399017 -0.734278 0.549200
vn -0.399017 -0.734278 0.549200
vn -0.504980 -0.511769 0.695045
vn -0.504980 -0.511769 0.695045
vn 0.000000 -0.734278 0.678849
vn 0.000000 -0.734278 0.678849
vn 0.000000 -0.511769 0.859123
vn 0.000000 -0.511769 0.859123
vn 0.399017 -0.734278 0.549200
vn 0.399017 -0.734278 0.549200
vn 0.504980 -0.511769 0.695045
vn 0.504980 -0.511769 0.695045
vn 0.645624 -0.734278 0.209776
vn 0.645624 -0.734278 0.209776
vn 0.823965 -0.499405 0.267723
vn 0.823965 -0.499405 0.267723
vn 0.645624 -0.734278 -0.209776
vn 0.645624 -0.734278 -0.209776
vn 0.830373 -0.487532 -0.269804
vn 0.830373 -0.487532 -0.269804
vn 0.000000 -1.000000 0.000000
vn 0.000000 -1.000000 0.000000
vn 0.000000 -1.000000 0.000000
vn 0.000000 -1.000000 -0.000000
vn 0.000000 -1.000000 0.000000
vn 0.000000 -1.000000 0.000000
vn 0.000000 -1.000000 0.000000
vn 0.000000 -1.000000 0.000000
vn 0.000000 -1.000000 0.000000
vn 0.000000 -1.000000 0.000000
vn 0.000000 -1.000000 0.000000
vn 0.603157 0.666457 -0.438219
vn 0.230385 0.666457 -0.709054
vn 0.000000 1.000000 0.000000
vn -0.230386 0.666457 -0.709054
vn -0.603157 0.666457 -0.438219
vn -0.745543 0.666457 0.000000
vn -0.603157 0.666457 0.438219
vn -0.230385 0.666457 0.709054
vn 0.230386 0.666457 0.709054
vn 0.603157 0.666457 0.438219
vn 0.745543 0.666457 0.000000
vn -0.000000 0.000000 -1.000000
vn -0.000000 0.000000 -1.000000
vn -0.000000 0.000000 -1.000000
vn -0.000000 0.000000 -1.000000
vn 0.587785 0.000000 -0.809017
vn 0.587785 0.000000 -0.809017
vn 0.587785 0.000000 -0.809017
vn 0.587785 0.000000 -0.809017
vn 0.951057 0.000000 -0.309017
vn 0.951057 0.000000 -0.309017
vn 0.951057 0.000000 -0.309017
vn 0.951057 0.000000 -0.309017
vn 0.951057 0.000000 0.309017
vn 0.951057 0.000000 0.309017
vn 0.951057 0.000000 0.309017
vn 0.951057 0.000000 0.309017
vn 0.587785 0.000000 0.809017
vn 0.587785 0.000000 0.809017
vn 0.587785 0.000000 0.809017
vn 0.587785 0.000000 0.809017
vn 0.000000 0.000000 1.000000
vn 0.000000 0.000000 1.000000
vn 0.000000 0.000000 1.000000
vn 0.000000 0.000000 1.000000
vn -0.587785 0.000000 0.809017
vn -0.587785 0.000000 0.809017
vn -0.587785 0.000000 0.809017
vn -0.587785 0.000000 0.809017
vn -0.951057 0.000000 0.309017
vn -0.951057 0.000000 0.309017
vn -0.951057 0.000000 0.309017
vn -0.951057 0.000000 0.309017
vn -0.951057 0.000000 -0.309017
vn -0.951057 0.000000 -0.309017
vn -0.951057 0.000000 -0.309017
vn -0.951057 0.000000 -0.309017
vn -0.587785 0.000000 -0.809017
vn -0.587785 0.000000 -0.809017
vn -0.587785 0.000000 -0.809017
vn -0.587785 0.000000 -0.809017
s 1
g pCylinder2
usemtl initialShadingGroup
f 1/11/1 2/12/2 34/57/3 35/59/4
s 2
f 2/12/5 3/13/6 33/56/7 34/57/8
s 3
f 3/13/9 4/14/10 42/66/11 33/56/12
s 4
f 4/14/13 5/15/14 41/65/15 42/66/16
s 5
f 5/15/17 6/16/18 40/64/19 41/65/20
s 6
f 6/16/21 7/17/22 39/63/23 40/64/24
s 7
f 7/17/25 8/18/26 38/62/27 39/63/28
s 8
f 8/18/29 9/19/30 37/61/31 38/62/32
s 9
f 9/19/33 10/20/34 36/60/35 37/61/36
s 10
f 10/20/37 1/21/38 35/58/39 36/60/40
s 11
f 2/2/41 1/1/42 21/43/43
f 3/3/44 2/2/41 21/43/43
f 4/4/45 3/3/44 21/43/43
f 5/5/46 4/4/45 21/43/43
f 6/6/47 5/5/46 21/43/43
f 7/7/48 6/6/47 21/43/43
f 8/8/49 7/7/48 21/43/43
f 9/9/50 8/8/49 21/43/43
f 10/10/51 9/9/50 21/43/43
f 1/1/42 10/10/51 21/43/43
s 12
f 11/41/52 12/40/53 22/44/54
f 12/40/53 13/39/55 22/44/54
f 13/39/55 14/38/56 22/44/54
f 14/38/56 15/37/57 22/44/54
f 15/37/57 16/36/58 22/44/54
f 16/36/58 17/35/59 22/44/54
f 17/35/59 18/34/60 22/44/54
f 18/34/60 19/33/61 22/44/54
f 19/33/61 20/42/62 22/44/54
f 20/42/62 11/41/52 22/44/54
s 2
f 24/46/63 23/45/64 13/24/65 12/23/66
s 1
f 25/48/67 24/46/68 12/23/69 11/22/70
s 10
f 26/49/71 25/47/72 11/32/73 20/31/74
s 9
f 27/50/75 26/49/76 20/31/77 19/30/78
s 8
f 28/51/79 27/50/80 19/30/81 18/29/82
s 7
f 29/52/83 28/51/84 18/29/85 17/28/86
s 6
f 30/53/87 29/52/88 17/28/89 16/27/90
s 5
f 31/54/91 30/53/92 16/27/93 15/26/94
s 4
f 32/55/95 31/54/96 15/26/97 14/25/98
s 3
f 23/45/99 32/55/100 14/25/101 13/24/102
s 2
f 34/57/8 33/56/7 23/45/64 24/46/63
s 1
f 35/59/4 34/57/3 24/46/68 25/48/67
s 10
f 36/60/40 35/58/39 25/47/72 26/49/71
s 9
f 37/61/36 36/60/35 26/49/76 27/50/75
s 8
f 38/62/32 37/61/31 27/50/80 28/51/79
s 7
f 39/63/28 38/62/27 28/51/84 29/52/83
s 6
f 40/64/24 39/63/23 29/52/88 30/53/87
s 5
f 41/65/20 40/64/19 30/53/92 31/54/91
s 4
f 42/66/16 41/65/15 31/54/96 32/55/95
s 3
f 33/56/12 42/66/11 32/55/100 23/45/99
