# Blender v2.75 (sub 0) OBJ File: ''
# www.blender.org
mtllib Wall.mtl
o polySurface16
v -0.499993 5.734427 -5.988157
v 0.500007 5.734427 -5.988157
v 0.500007 9.269958 -2.452623
v -0.499993 9.269958 -2.452623
v 0.500007 9.977067 -3.159729
v -0.499993 9.977067 -3.159729
v 0.500007 6.441533 -6.695264
v -0.499993 6.441533 -6.695264
v -0.499993 -0.015565 -5.986185
v 0.500007 -0.015565 -5.986185
v 0.500007 9.984435 -5.986184
v -0.499993 9.984435 -5.986184
v 0.500007 9.984435 -6.986184
v -0.499993 9.984435 -6.986184
v 0.500007 -0.015565 -6.986185
v -0.499993 -0.015565 -6.986185
v -0.499993 9.983825 0.015710
v 0.500007 9.983825 0.015710
v 0.500007 9.983826 -6.987551
v -0.499993 9.983826 -6.987551
v 0.500007 8.983826 -6.987551
v -0.499993 8.983826 -6.987551
v 0.500007 8.983825 0.015709
v -0.499993 8.983825 0.015709
v -5.000000 0.000001 -6.204028
v 5.000000 0.000001 -6.204028
v 5.000000 0.555556 -6.390627
v -5.000000 0.555556 -6.390627
v -5.000000 10.000001 -6.204027
v 5.000000 10.000001 -6.204027
v 5.000000 10.000001 -7.349998
v -5.000000 10.000001 -7.349998
v -5.000000 0.555556 -7.350000
v 5.000000 0.555556 -7.350000
v 5.000000 0.000001 -7.350000
v -5.000000 0.000001 -7.350000
v -5.000000 6.666667 -6.674930
v 5.000000 6.666667 -6.674930
v 5.000000 7.222223 -6.606901
v -5.000000 7.222223 -6.606901
v -5.000000 6.666667 -7.349999
v -5.000000 7.222223 -7.349999
v 5.000000 7.222223 -7.349999
v 5.000000 6.666667 -7.349999
v -5.000000 3.333334 -6.674931
v 5.000000 3.333334 -6.674931
v 5.000000 3.888890 -6.705770
v -5.000000 3.888890 -6.705770
v -5.000000 3.333334 -7.349999
v -5.000000 3.888890 -7.349999
v 5.000000 3.888890 -7.349999
v 5.000000 3.333334 -7.349999
v -5.000000 8.888889 -6.458652
v 5.000000 8.888889 -6.458652
v 5.000000 9.444446 -6.390625
v -5.000000 9.444446 -6.390625
v -5.000000 8.888889 -7.349998
v -5.000000 9.444446 -7.349998
v 5.000000 9.444446 -7.349998
v 5.000000 8.888889 -7.349998
v -5.000000 7.777778 -6.560575
v 5.000000 7.777778 -6.560575
v 5.000000 8.333334 -6.514246
v -5.000000 8.333334 -6.514246
v -5.000000 7.777779 -7.349998
v -5.000000 8.333334 -7.349998
v 5.000000 8.333334 -7.349998
v 5.000000 7.777779 -7.349998
v -5.000000 5.555556 -6.740419
v 5.000000 5.555556 -6.740419
v 5.000000 6.111112 -6.705769
v -5.000000 6.111112 -6.705769
v -5.000000 5.555556 -7.349999
v -5.000000 6.111113 -7.349999
v 5.000000 6.111113 -7.349999
v 5.000000 5.555556 -7.349999
v -5.000000 4.444445 -6.740419
v 5.000000 4.444445 -6.740419
v 5.000000 5.000001 -6.758100
v -5.000000 5.000001 -6.758100
v -5.000000 4.444446 -7.349999
v -5.000000 5.000001 -7.349999
v 5.000000 5.000001 -7.349999
v 5.000000 4.444446 -7.349999
v -5.000000 2.222223 -6.560575
v 5.000000 2.222223 -6.560575
v 5.000000 2.777779 -6.606902
v -5.000000 2.777779 -6.606902
v -5.000000 2.222223 -7.349999
v -5.000000 2.777779 -7.349999
v 5.000000 2.777779 -7.349999
v 5.000000 2.222223 -7.349999
v -5.000000 1.111112 -6.458654
v 5.000000 1.111112 -6.458654
v 5.000000 1.666668 -6.514247
v -5.000000 1.666668 -6.514247
v -5.000000 1.111112 -7.350000
v -5.000000 1.666668 -7.349999
v 5.000000 1.666668 -7.349999
v 5.000000 1.111112 -7.350000
vt 0.000032 0.349607
vt 0.000032 0.249613
vt 0.999968 0.249613
vt 0.999968 0.349606
vt 0.543818 0.678464
vt 0.734381 0.678464
vt 0.734381 0.869027
vt 0.543818 0.869027
vt 0.544437 0.677754
vt 0.737698 0.677754
vt 0.737698 0.871015
vt 0.544437 0.871015
vt 0.000063 0.347433
vt 0.000063 0.247446
vt 0.999937 0.247446
vt 0.999937 0.347432
vt 0.000063 0.346532
vt 0.000063 0.246544
vt 0.999937 0.246544
vt 0.999937 0.346531
vt 0.000068 0.000068
vt 0.999932 0.000068
vt 0.999932 0.114649
vt 0.000068 0.114649
vt 0.000068 -0.001480
vt 0.999932 -0.001480
vt 0.999932 0.113102
vt 0.000068 0.113102
vt 0.032658 0.624746
vt 0.390533 0.624745
vt 0.390533 0.645719
vt 0.032658 0.645720
vt 0.034466 0.965640
vt 0.391961 0.965640
vt 0.391961 0.985865
vt 0.034466 0.985865
vt 0.977099 0.977993
vt 0.926334 0.977993
vt 0.926334 0.953383
vt 0.968833 0.953383
vt 0.875509 0.977993
vt 0.883775 0.953383
vt 0.032658 0.865114
vt 0.390534 0.865114
vt 0.390534 0.885144
vt 0.032658 0.885145
vt 0.926274 0.682667
vt 0.896369 0.682667
vt 0.893355 0.658056
vt 0.926274 0.658056
vt 0.034466 0.722938
vt 0.391961 0.722938
vt 0.391961 0.743163
vt 0.034466 0.743163
vt 0.956239 0.682667
vt 0.959252 0.658056
vt 0.032658 0.745664
vt 0.390533 0.745663
vt 0.390533 0.765576
vt 0.032658 0.765577
vt 0.926274 0.830330
vt 0.896369 0.830330
vt 0.897735 0.805719
vt 0.926274 0.805719
vt 0.034466 0.844289
vt 0.391961 0.844289
vt 0.391961 0.864514
vt 0.034466 0.864514
vt 0.956239 0.830330
vt 0.954873 0.805719
vt 0.032658 0.945027
vt 0.390534 0.945028
vt 0.390534 0.965058
vt 0.032658 0.965058
vt 0.926274 0.584225
vt 0.886788 0.584225
vt 0.883775 0.559614
vt 0.926274 0.559614
vt 0.034466 0.642037
vt 0.391961 0.642037
vt 0.391961 0.662262
vt 0.034466 0.662262
vt 0.965820 0.584225
vt 0.968833 0.559614
vt 0.032658 0.905096
vt 0.390534 0.905095
vt 0.390534 0.925046
vt 0.032658 0.925047
vt 0.926274 0.633446
vt 0.891303 0.633446
vt 0.889251 0.608835
vt 0.926274 0.608835
vt 0.034466 0.682487
vt 0.391961 0.682487
vt 0.391961 0.702713
vt 0.034466 0.702713
vt 0.961305 0.633446
vt 0.963357 0.608835
vt 0.032658 0.825281
vt 0.390534 0.825281
vt 0.390534 0.845201
vt 0.032658 0.845202
vt 0.926274 0.731888
vt 0.899270 0.731888
vt 0.897735 0.707277
vt 0.926274 0.707277
vt 0.034466 0.763388
vt 0.391961 0.763388
vt 0.391961 0.783613
vt 0.034466 0.783613
vt 0.953338 0.731888
vt 0.954873 0.707277
vt 0.032658 0.785497
vt 0.390533 0.785496
vt 0.390533 0.805389
vt 0.032658 0.805389
vt 0.926274 0.781109
vt 0.899270 0.781109
vt 0.900053 0.756498
vt 0.926274 0.756498
vt 0.034466 0.803838
vt 0.391961 0.803838
vt 0.391961 0.824064
vt 0.034466 0.824064
vt 0.953338 0.781109
vt 0.952554 0.756498
vt 0.032658 0.705683
vt 0.390533 0.705682
vt 0.390533 0.725633
vt 0.032658 0.725633
vt 0.926274 0.879551
vt 0.891303 0.879551
vt 0.893355 0.854940
vt 0.926274 0.854940
vt 0.034466 0.884739
vt 0.391961 0.884739
vt 0.391961 0.904964
vt 0.034466 0.904964
vt 0.961305 0.879551
vt 0.959252 0.854940
vt 0.032658 0.665751
vt 0.390533 0.665750
vt 0.390533 0.685731
vt 0.032658 0.685732
vt 0.926274 0.928772
vt 0.886788 0.928772
vt 0.889251 0.904162
vt 0.926274 0.904162
vt 0.034466 0.925190
vt 0.391961 0.925190
vt 0.391961 0.945415
vt 0.034466 0.945415
vt 0.965820 0.928772
vt 0.963357 0.904162
vt 0.390534 0.986032
vt 0.032658 0.986032
vt 0.875509 0.535003
vt 0.926274 0.535004
vt 0.034466 0.621812
vt 0.391961 0.621812
vt 0.977099 0.535004
vn 0.000000 -0.000000 1.000000
vn 0.000000 1.000000 0.000000
vn 0.000000 0.000000 -1.000000
vn 0.000000 -1.000000 -0.000000
vn 1.000000 0.000000 0.000000
vn -1.000000 0.000000 0.000000
vn 0.000000 0.318400 0.948000
vn 0.000000 0.223300 0.974700
vn 0.000000 -0.088500 0.996100
vn 0.000000 -0.102300 0.994700
vn 0.000000 0.088500 0.996100
vn 0.000000 0.058800 0.998300
vn 0.000000 -0.110600 0.993900
vn -0.000000 -0.223300 0.974700
vn 0.000000 -0.083100 0.996500
vn 0.000000 -0.091300 0.995800
vn 0.000000 -0.047000 0.998900
vn 0.000000 -0.058800 0.998300
vn 0.000000 0.047000 0.998900
vn 0.000000 0.083100 0.996500
vn 0.000000 0.102300 0.994700
vn 0.000000 0.110600 0.993900
vn 0.000000 0.091300 0.995800
vn 0.000000 -0.318400 0.948000
usemtl initialShadingGroup
s off
f 9/1/1 10/2/1 11/3/1 12/4/1
f 12/5/2 11/6/2 13/7/2 14/8/2
f 14/3/3 13/4/3 15/1/3 16/2/3
f 16/9/4 15/10/4 10/11/4 9/12/4
f 10/13/5 15/14/5 13/15/5 11/16/5
f 16/17/6 9/18/6 12/19/6 14/20/6
f 29/21/2 30/22/2 31/23/2 32/24/2
f 36/25/4 35/26/4 26/27/4 25/28/4
s 1
f 25/29/7 26/30/7 27/31/8 28/32/8
f 33/33/3 34/34/3 35/35/3 36/36/3
f 26/37/5 35/38/5 34/39/5 27/40/5
f 36/38/6 25/41/6 28/42/6 33/39/6
f 37/43/9 38/44/9 39/45/10 40/46/10
f 41/47/6 37/48/6 40/49/6 42/50/6
f 42/51/3 43/52/3 44/53/3 41/54/3
f 38/55/5 44/47/5 43/50/5 39/56/5
f 45/57/11 46/58/11 47/59/12 48/60/12
f 49/61/6 45/62/6 48/63/6 50/64/6
f 50/65/3 51/66/3 52/67/3 49/68/3
f 46/69/5 52/61/5 51/64/5 47/70/5
f 53/71/13 54/72/13 55/73/14 56/74/14
f 57/75/6 53/76/6 56/77/6 58/78/6
f 58/79/3 59/80/3 60/81/3 57/82/3
f 54/83/5 60/75/5 59/78/5 55/84/5
f 61/85/15 62/86/15 63/87/16 64/88/16
f 65/89/6 61/90/6 64/91/6 66/92/6
f 66/93/3 67/94/3 68/95/3 65/96/3
f 62/97/5 68/89/5 67/92/5 63/98/5
f 69/99/17 70/100/17 71/101/18 72/102/18
f 73/103/6 69/104/6 72/105/6 74/106/6
f 74/107/3 75/108/3 76/109/3 73/110/3
f 70/111/5 76/103/5 75/106/5 71/112/5
f 77/113/19 78/114/19 79/115/1 80/116/1
f 81/117/6 77/118/6 80/119/6 82/120/6
f 82/121/3 83/122/3 84/123/3 81/124/3
f 78/125/5 84/117/5 83/120/5 79/126/5
f 85/127/20 86/128/20 87/129/21 88/130/21
f 89/131/6 85/132/6 88/133/6 90/134/6
f 90/135/3 91/136/3 92/137/3 89/138/3
f 86/139/5 92/131/5 91/134/5 87/140/5
f 93/141/22 94/142/22 95/143/23 96/144/23
f 97/145/6 93/146/6 96/147/6 98/148/6
f 98/149/3 99/150/3 100/151/3 97/152/3
f 94/153/5 100/145/5 99/148/5 95/154/5
f 56/74/14 55/73/14 30/155/24 29/156/24
f 58/78/6 56/77/6 29/157/6 32/158/6
f 32/159/3 31/160/3 59/80/3 58/79/3
f 55/84/5 59/78/5 31/158/5 30/161/5
f 64/88/16 63/87/16 54/72/13 53/71/13
f 66/92/6 64/91/6 53/76/6 57/75/6
f 57/82/3 60/81/3 67/94/3 66/93/3
f 63/98/5 67/92/5 60/75/5 54/83/5
f 40/46/10 39/45/10 62/86/15 61/85/15
f 42/50/6 40/49/6 61/90/6 65/89/6
f 65/96/3 68/95/3 43/52/3 42/51/3
f 39/56/5 43/50/5 68/89/5 62/97/5
f 72/102/18 71/101/18 38/44/9 37/43/9
f 74/106/6 72/105/6 37/48/6 41/47/6
f 41/54/3 44/53/3 75/108/3 74/107/3
f 71/112/5 75/106/5 44/47/5 38/55/5
f 80/116/1 79/115/1 70/100/17 69/99/17
f 82/120/6 80/119/6 69/104/6 73/103/6
f 73/110/3 76/109/3 83/122/3 82/121/3
f 79/126/5 83/120/5 76/103/5 70/111/5
f 48/60/12 47/59/12 78/114/19 77/113/19
f 50/64/6 48/63/6 77/118/6 81/117/6
f 81/124/3 84/123/3 51/66/3 50/65/3
f 47/70/5 51/64/5 84/117/5 78/125/5
f 88/130/21 87/129/21 46/58/11 45/57/11
f 90/134/6 88/133/6 45/62/6 49/61/6
f 49/68/3 52/67/3 91/136/3 90/135/3
f 87/140/5 91/134/5 52/61/5 46/69/5
f 96/144/23 95/143/23 86/128/20 85/127/20
f 98/148/6 96/147/6 85/132/6 89/131/6
f 89/138/3 92/137/3 99/150/3 98/149/3
f 95/154/5 99/148/5 92/131/5 86/139/5
f 28/32/8 27/31/8 94/142/22 93/141/22
f 33/39/6 28/42/6 93/146/6 97/145/6
f 97/152/3 100/151/3 34/34/3 33/33/3
f 27/40/5 34/39/5 100/145/5 94/153/5
